<svg xmlns="http://www.w3.org/2000/svg" viewBox="0 0 330 330">
    <defs>
        <style>
            .cls-1{fill:#ff0333}.cls-2{fill:#f5f6ff}
        </style>
    </defs>
    <path d="M-.59-.59h331.17v331.17H-.59z" id="BACKGROUND"/>
    <g id="OBJECTS">
        <path class="cls-2" d="m279.08 181.48-16.49-8.92c-1.61-22.2-10.65-42.34-24.61-57.98l2.28-7.65-7.51 2.23a98.074 98.074 0 0 0-16-12.45c-.29 4.08-1.05 8.02-2.22 11.78 22.52 15.68 37.28 41.77 37.28 71.29 0 47.94-38.87 86.8-86.8 86.8s-86.8-38.87-86.8-86.8c0-29.52 14.75-55.61 37.28-71.29-1.17-3.76-1.94-7.7-2.22-11.78a97.465 97.465 0 0 0-13.45 10.08l-7.65-2.28 2.23 7.51c-14.53 15.14-24.24 34.94-26.65 56.95l-16.82 9.1 16.49 8.92c1.61 22.2 10.65 42.34 24.61 57.98l-2.28 7.65 7.51-2.23c15.14 14.53 34.94 24.24 56.95 26.65l9.1 16.82 8.92-16.49c22.2-1.61 42.34-10.65 57.98-24.61l7.65 2.28-2.23-7.51c14.53-15.14 24.24-34.94 26.65-56.95l16.82-9.1Z"/>
        <path class="cls-2" d="M213.65 156.19 165 208.53l-33.17-27.05-40.24 39.21a81.54 81.54 0 0 0 2.88 4.77l37.36-36.28 21.91 17.03-17.62-8.92-8.03 9.31-.82 8.85-8.03 7.46 4.68-6.91.81-5.99-22.51 25.62c15.38 17.31 37.81 28.2 62.79 28.2 43.61 0 79.47-33.23 83.63-75.75l-34.98-31.88Zm-33.72 77.22-22.39 2.76 16.03-8.57-8.57-12.99 35.11 30.96-20.18-12.16Zm10.6-8.97 4.46 10.21-7.51-6.77-18.42-16.03 44.78-48.29-13.09 23.96 2.59 22.48-12.8 14.44Zm26.35-51.98-10.84 10.08 9.95-17.69 28.34 26.54-27.46-18.93ZM105.29 202.81l-15.4 14.67a83.276 83.276 0 0 1-8.16-26.41l15.37 8.02-16.11-17.23c-.01-.7-.02-1.39-.02-2.09 0-.9.01-1.79.04-2.69l24.28 25.72Z"/>
        <circle class="cls-1" cx="165" cy="175.35" r="9.77" transform="rotate(-25.32 164.975 175.34)"/>
        <path class="cls-1" d="M165 47.36c-25.19 0-45.61 20.42-45.61 45.61 0 12.46 5 23.74 13.09 31.98l31.35 32.32c.64.66 1.7.66 2.34 0l31.35-32.32c4.05-4.11 7.32-9 9.59-14.41a45.42 45.42 0 0 0 3.51-17.57c0-25.19-20.42-45.61-45.61-45.61Zm0 79.61c-18.78 0-34-15.23-34-34s15.23-34 34-34 34 15.23 34 34-15.23 34-34 34Z"/>
    </g>
</svg>
